<svg xmlns="http://www.w3.org/2000/svg" viewBox="0 0 800 1534" width="800" height="1534" role="img" aria-labelledby="t d">
<title id="t">Soai’s copier: a molecule that makes copies of its own hand</title>
<desc id="d">How Soai&#x27;s reaction copies one hand, and his group&#x27;s 2003 numbers. Top, the copier: grey dots are a simple ingredient with no hand; a molecule with one hand, solid orange, turns an ingredient into a new molecule of its own hand, so 1 molecule becomes 2, and 2 become 4. Middle, a bar chart of the lead of one hand (ee) in three runs in a row, Soai&#x27;s group, 2003: the start, 0.00005 per cent, too small to draw (one hand ahead by about one molecule in two million); after run 1, 57 per cent; after run 2, 99 per cent; after run 3, more than 99.5 per cent. Bottom: with no head start at all, 37 runs: 19 gave one hand and 18 the other, with a lead between 15 and 91 per cent, never one hand only; the hand was chosen at random. Why the reaction amplifies the lead is still debated. The tokens are symbols, not real molecules. Our own drawing.</desc>
<style>@media (prefers-reduced-motion: reduce){*{animation:none!important;transition:none!important}}</style>
<g font-family='system-ui, -apple-system, "Segoe UI", Roboto, "Helvetica Neue", Arial, sans-serif'>
<defs><pattern id="hatch" width="9" height="9" patternUnits="userSpaceOnUse" patternTransform="rotate(45)"><rect width="9" height="9" fill="#2b8a8f"/><line x1="1.5" y1="0" x2="1.5" y2="9" stroke="#10141B" stroke-width="2.6" stroke-opacity=".7"/></pattern><pattern id="ruled" width="32" height="32" patternUnits="userSpaceOnUse"><line x1="0" y1="31" x2="32" y2="31" stroke="#1C2330" stroke-width="1.5"/></pattern></defs><rect width="800" height="1534" rx="28" fill="#10141B"/><rect x="8" y="8" width="784" height="1518" rx="22" fill="url(#ruled)"/><line x1="22" y1="8" x2="22" y2="1526" stroke="#c4622d" stroke-opacity=".28" stroke-width="2"/><rect x="1.5" y="1.5" width="797" height="1531" rx="27" fill="none" stroke="#323C4C" stroke-width="3"/><text x="44" y="78" font-size="38" font-weight="800" fill="#EEE6D6" text-anchor="start" >Soai’s copier</text><text x="44" y="118" font-size="25" font-weight="500" fill="#ABA394" text-anchor="start" >A molecule that makes copies of its own hand</text><rect x="36" y="154" width="728" height="330" rx="20" fill="#171D27" stroke="#323C4C" stroke-width="2"/><text x="64" y="200" font-size="26" font-weight="800" fill="#EEE6D6" text-anchor="start" >Each copy makes another copy</text><text x="64" y="230" font-size="19" font-weight="600" fill="#ABA394" text-anchor="start" >A molecule of one hand turns a simple ingredient into a new molecule</text>
<text x="64" y="255" font-size="19" font-weight="600" fill="#ABA394" text-anchor="start" >of the same hand.</text><circle cx="118.4" cy="329.6" r="7.8" fill="#c4622d" stroke="#171D27" stroke-width="2"/><circle cx="106.0" cy="340.0" r="17.0" fill="#c4622d" stroke="#171D27" stroke-width="2"/><circle cx="118.4" cy="329.6" r="6.8" fill="#c4622d"/><text x="154" y="350" font-size="30" font-weight="800" fill="#EEE6D6" text-anchor="middle" >+</text><circle cx="184" cy="340" r="9" fill="#8A867F" stroke="#171D27" stroke-width="2"/><line x1="208.0" y1="340.0" x2="252.0" y2="340.0" stroke="#ABA394" stroke-width="4" stroke-linecap="round"/><polygon points="262.0,340.0 248.0,331.3 248.0,348.7" fill="#ABA394"/><circle cx="310.4" cy="307.6" r="7.8" fill="#c4622d" stroke="#171D27" stroke-width="2"/><circle cx="298.0" cy="318.0" r="17.0" fill="#c4622d" stroke="#171D27" stroke-width="2"/><circle cx="310.4" cy="307.6" r="6.8" fill="#c4622d"/><circle cx="310.4" cy="351.6" r="7.8" fill="#c4622d" stroke="#171D27" stroke-width="2"/><circle cx="298.0" cy="362.0" r="17.0" fill="#c4622d" stroke="#171D27" stroke-width="2"/><circle cx="310.4" cy="351.6" r="6.8" fill="#c4622d"/><text x="346" y="350" font-size="30" font-weight="800" fill="#EEE6D6" text-anchor="middle" >+</text><circle cx="376" cy="324" r="9" fill="#8A867F" stroke="#171D27" stroke-width="2"/><circle cx="376" cy="356" r="9" fill="#8A867F" stroke="#171D27" stroke-width="2"/><line x1="400.0" y1="340.0" x2="444.0" y2="340.0" stroke="#ABA394" stroke-width="4" stroke-linecap="round"/><polygon points="454.0,340.0 440.0,331.3 440.0,348.7" fill="#ABA394"/><circle cx="502.4" cy="307.6" r="7.8" fill="#c4622d" stroke="#171D27" stroke-width="2"/><circle cx="490.0" cy="318.0" r="17.0" fill="#c4622d" stroke="#171D27" stroke-width="2"/><circle cx="502.4" cy="307.6" r="6.8" fill="#c4622d"/><circle cx="502.4" cy="351.6" r="7.8" fill="#c4622d" stroke="#171D27" stroke-width="2"/><circle cx="490.0" cy="362.0" r="17.0" fill="#c4622d" stroke="#171D27" stroke-width="2"/><circle cx="502.4" cy="351.6" r="6.8" fill="#c4622d"/><circle cx="546.4" cy="307.6" r="7.8" fill="#c4622d" stroke="#171D27" stroke-width="2"/><circle cx="534.0" cy="318.0" r="17.0" fill="#c4622d" stroke="#171D27" stroke-width="2"/><circle cx="546.4" cy="307.6" r="6.8" fill="#c4622d"/><circle cx="546.4" cy="351.6" r="7.8" fill="#c4622d" stroke="#171D27" stroke-width="2"/><circle cx="534.0" cy="362.0" r="17.0" fill="#c4622d" stroke="#171D27" stroke-width="2"/><circle cx="546.4" cy="351.6" r="6.8" fill="#c4622d"/><line x1="566.0" y1="340.0" x2="610.0" y2="340.0" stroke="#ABA394" stroke-width="4" stroke-linecap="round"/><polygon points="620.0,340.0 606.0,331.3 606.0,348.7" fill="#ABA394"/><text x="636" y="349" font-size="24" font-weight="800" fill="#EC8A5A" text-anchor="start" >8, 16 …</text><text x="106" y="410" font-size="24" font-weight="800" fill="#EEE6D6" text-anchor="middle" >1</text><text x="298" y="410" font-size="24" font-weight="800" fill="#EEE6D6" text-anchor="middle" >2</text><text x="512" y="410" font-size="24" font-weight="800" fill="#EEE6D6" text-anchor="middle" >4</text><circle cx="76" cy="444" r="9" fill="#8A867F" stroke="#171D27" stroke-width="2"/><text x="94" y="450" font-size="18" font-weight="700" fill="#ABA394" text-anchor="start" >simple ingredient, no hand</text><circle cx="397.3" cy="437.3" r="5.1" fill="#c4622d" stroke="#171D27" stroke-width="2"/><circle cx="389.3" cy="444.0" r="11.0" fill="#c4622d" stroke="#171D27" stroke-width="2"/><circle cx="397.3" cy="437.3" r="4.1" fill="#c4622d"/><text x="409.325" y="450" font-size="18" font-weight="700" fill="#ABA394" text-anchor="start" >molecule of one hand</text><rect x="36" y="500" width="728" height="514" rx="20" fill="#171D27" stroke="#323C4C" stroke-width="2"/><text x="64" y="546" font-size="26" font-weight="800" fill="#EEE6D6" text-anchor="start" >Three runs in a row</text><text x="64" y="574" font-size="19" font-weight="600" fill="#ABA394" text-anchor="start" >Soai’s group, 2003: the lead of one hand (ee) after each run</text><line x1="148" y1="886.0" x2="668" y2="886.0" stroke="#1C2330" stroke-width="2"/><text x="136" y="892" font-size="18" font-weight="600" fill="#ABA394" text-anchor="end" >0%</text><line x1="148" y1="761.0" x2="668" y2="761.0" stroke="#1C2330" stroke-width="2"/><text x="136" y="767" font-size="18" font-weight="600" fill="#ABA394" text-anchor="end" >50%</text><line x1="148" y1="636.0" x2="668" y2="636.0" stroke="#1C2330" stroke-width="2"/><text x="136" y="642" font-size="18" font-weight="600" fill="#ABA394" text-anchor="end" >100%</text><rect x="180.0" y="883.0" width="66" height="3" fill="#c4622d"/><text x="213" y="914" font-size="19" font-weight="700" fill="#EEE6D6" text-anchor="middle" >start</text><rect x="310.0" y="743.5" width="66" height="142.5" rx="4" fill="#c4622d"/><text x="343" y="733.5" font-size="20" font-weight="800" fill="#EEE6D6" text-anchor="middle" >57%</text><text x="343" y="914" font-size="19" font-weight="700" fill="#EEE6D6" text-anchor="middle" >run 1</text><rect x="440.0" y="638.5" width="66" height="247.5" rx="4" fill="#c4622d"/><text x="473" y="628.5" font-size="20" font-weight="800" fill="#EEE6D6" text-anchor="middle" >99%</text><text x="473" y="914" font-size="19" font-weight="700" fill="#EEE6D6" text-anchor="middle" >run 2</text><rect x="570.0" y="637.2" width="66" height="248.8" rx="4" fill="#c4622d"/><text x="603" y="627.25" font-size="20" font-weight="800" fill="#EEE6D6" text-anchor="middle" >&gt;99.5%</text><text x="603" y="914" font-size="19" font-weight="700" fill="#EEE6D6" text-anchor="middle" >run 3</text><line x1="148" y1="886.0" x2="668" y2="886.0" stroke="#EEE6D6" stroke-width="3"/><path d="M213.0 924.0 V950.0" stroke="#ABA394" stroke-width="2" stroke-dasharray="3 4"/><circle cx="213.0" cy="883.0" r="7" fill="none" stroke="#ABA394" stroke-width="2"/><text x="183.0" y="970.0" font-size="19" fill="#ABA394" font-weight="600"><tspan fill="#EC8A5A" font-weight="800">Start, 0.00005%: too small to draw.</tspan></text><text x="183" y="996" font-size="19" font-weight="600" fill="#ABA394" text-anchor="start" >One hand was ahead by about 1 molecule in 2 million.</text><rect x="36" y="1030" width="728" height="222" rx="20" fill="#171D27" stroke="#323C4C" stroke-width="2"/><text x="64" y="1076" font-size="26" font-weight="800" fill="#EEE6D6" text-anchor="start" >No head start at all</text><text x="64" y="1104" font-size="19" font-weight="600" fill="#ABA394" text-anchor="start" >37 runs with nothing added to choose a hand</text><circle cx="90.0" cy="1137.3" r="5.1" fill="#c4622d" stroke="#171D27" stroke-width="2"/><circle cx="82.0" cy="1144.0" r="11.0" fill="#c4622d" stroke="#171D27" stroke-width="2"/><circle cx="90.0" cy="1137.3" r="4.1" fill="#c4622d"/><circle cx="126.5" cy="1137.3" r="5.1" fill="#c4622d" stroke="#171D27" stroke-width="2"/><circle cx="118.5" cy="1144.0" r="11.0" fill="#c4622d" stroke="#171D27" stroke-width="2"/><circle cx="126.5" cy="1137.3" r="4.1" fill="#c4622d"/><circle cx="163.0" cy="1137.3" r="5.1" fill="#c4622d" stroke="#171D27" stroke-width="2"/><circle cx="155.0" cy="1144.0" r="11.0" fill="#c4622d" stroke="#171D27" stroke-width="2"/><circle cx="163.0" cy="1137.3" r="4.1" fill="#c4622d"/><circle cx="183.5" cy="1137.3" r="5.1" fill="url(#hatch)" stroke="#171D27" stroke-width="2"/><circle cx="191.5" cy="1144.0" r="11.0" fill="url(#hatch)" stroke="#171D27" stroke-width="2"/><circle cx="183.5" cy="1137.3" r="4.1" fill="url(#hatch)"/><circle cx="236.0" cy="1137.3" r="5.1" fill="#c4622d" stroke="#171D27" stroke-width="2"/><circle cx="228.0" cy="1144.0" r="11.0" fill="#c4622d" stroke="#171D27" stroke-width="2"/><circle cx="236.0" cy="1137.3" r="4.1" fill="#c4622d"/><circle cx="256.5" cy="1137.3" r="5.1" fill="url(#hatch)" stroke="#171D27" stroke-width="2"/><circle cx="264.5" cy="1144.0" r="11.0" fill="url(#hatch)" stroke="#171D27" stroke-width="2"/><circle cx="256.5" cy="1137.3" r="4.1" fill="url(#hatch)"/><circle cx="293.0" cy="1137.3" r="5.1" fill="url(#hatch)" stroke="#171D27" stroke-width="2"/><circle cx="301.0" cy="1144.0" r="11.0" fill="url(#hatch)" stroke="#171D27" stroke-width="2"/><circle cx="293.0" cy="1137.3" r="4.1" fill="url(#hatch)"/><circle cx="329.5" cy="1137.3" r="5.1" fill="url(#hatch)" stroke="#171D27" stroke-width="2"/><circle cx="337.5" cy="1144.0" r="11.0" fill="url(#hatch)" stroke="#171D27" stroke-width="2"/><circle cx="329.5" cy="1137.3" r="4.1" fill="url(#hatch)"/><circle cx="382.0" cy="1137.3" r="5.1" fill="#c4622d" stroke="#171D27" stroke-width="2"/><circle cx="374.0" cy="1144.0" r="11.0" fill="#c4622d" stroke="#171D27" stroke-width="2"/><circle cx="382.0" cy="1137.3" r="4.1" fill="#c4622d"/><circle cx="418.5" cy="1137.3" r="5.1" fill="#c4622d" stroke="#171D27" stroke-width="2"/><circle cx="410.5" cy="1144.0" r="11.0" fill="#c4622d" stroke="#171D27" stroke-width="2"/><circle cx="418.5" cy="1137.3" r="4.1" fill="#c4622d"/><circle cx="455.0" cy="1137.3" r="5.1" fill="#c4622d" stroke="#171D27" stroke-width="2"/><circle cx="447.0" cy="1144.0" r="11.0" fill="#c4622d" stroke="#171D27" stroke-width="2"/><circle cx="455.0" cy="1137.3" r="4.1" fill="#c4622d"/><circle cx="491.5" cy="1137.3" r="5.1" fill="#c4622d" stroke="#171D27" stroke-width="2"/><circle cx="483.5" cy="1144.0" r="11.0" fill="#c4622d" stroke="#171D27" stroke-width="2"/><circle cx="491.5" cy="1137.3" r="4.1" fill="#c4622d"/><circle cx="528.0" cy="1137.3" r="5.1" fill="#c4622d" stroke="#171D27" stroke-width="2"/><circle cx="520.0" cy="1144.0" r="11.0" fill="#c4622d" stroke="#171D27" stroke-width="2"/><circle cx="528.0" cy="1137.3" r="4.1" fill="#c4622d"/><circle cx="548.5" cy="1137.3" r="5.1" fill="url(#hatch)" stroke="#171D27" stroke-width="2"/><circle cx="556.5" cy="1144.0" r="11.0" fill="url(#hatch)" stroke="#171D27" stroke-width="2"/><circle cx="548.5" cy="1137.3" r="4.1" fill="url(#hatch)"/><circle cx="585.0" cy="1137.3" r="5.1" fill="url(#hatch)" stroke="#171D27" stroke-width="2"/><circle cx="593.0" cy="1144.0" r="11.0" fill="url(#hatch)" stroke="#171D27" stroke-width="2"/><circle cx="585.0" cy="1137.3" r="4.1" fill="url(#hatch)"/><circle cx="637.5" cy="1137.3" r="5.1" fill="#c4622d" stroke="#171D27" stroke-width="2"/><circle cx="629.5" cy="1144.0" r="11.0" fill="#c4622d" stroke="#171D27" stroke-width="2"/><circle cx="637.5" cy="1137.3" r="4.1" fill="#c4622d"/><circle cx="658.0" cy="1137.3" r="5.1" fill="url(#hatch)" stroke="#171D27" stroke-width="2"/><circle cx="666.0" cy="1144.0" r="11.0" fill="url(#hatch)" stroke="#171D27" stroke-width="2"/><circle cx="658.0" cy="1137.3" r="4.1" fill="url(#hatch)"/><circle cx="710.5" cy="1137.3" r="5.1" fill="#c4622d" stroke="#171D27" stroke-width="2"/><circle cx="702.5" cy="1144.0" r="11.0" fill="#c4622d" stroke="#171D27" stroke-width="2"/><circle cx="710.5" cy="1137.3" r="4.1" fill="#c4622d"/><circle cx="731.0" cy="1137.3" r="5.1" fill="url(#hatch)" stroke="#171D27" stroke-width="2"/><circle cx="739.0" cy="1144.0" r="11.0" fill="url(#hatch)" stroke="#171D27" stroke-width="2"/><circle cx="731.0" cy="1137.3" r="4.1" fill="url(#hatch)"/><circle cx="90.0" cy="1177.3" r="5.1" fill="#c4622d" stroke="#171D27" stroke-width="2"/><circle cx="82.0" cy="1184.0" r="11.0" fill="#c4622d" stroke="#171D27" stroke-width="2"/><circle cx="90.0" cy="1177.3" r="4.1" fill="#c4622d"/><circle cx="126.5" cy="1177.3" r="5.1" fill="#c4622d" stroke="#171D27" stroke-width="2"/><circle cx="118.5" cy="1184.0" r="11.0" fill="#c4622d" stroke="#171D27" stroke-width="2"/><circle cx="126.5" cy="1177.3" r="4.1" fill="#c4622d"/><circle cx="163.0" cy="1177.3" r="5.1" fill="#c4622d" stroke="#171D27" stroke-width="2"/><circle cx="155.0" cy="1184.0" r="11.0" fill="#c4622d" stroke="#171D27" stroke-width="2"/><circle cx="163.0" cy="1177.3" r="4.1" fill="#c4622d"/><circle cx="199.5" cy="1177.3" r="5.1" fill="#c4622d" stroke="#171D27" stroke-width="2"/><circle cx="191.5" cy="1184.0" r="11.0" fill="#c4622d" stroke="#171D27" stroke-width="2"/><circle cx="199.5" cy="1177.3" r="4.1" fill="#c4622d"/><circle cx="220.0" cy="1177.3" r="5.1" fill="url(#hatch)" stroke="#171D27" stroke-width="2"/><circle cx="228.0" cy="1184.0" r="11.0" fill="url(#hatch)" stroke="#171D27" stroke-width="2"/><circle cx="220.0" cy="1177.3" r="4.1" fill="url(#hatch)"/><circle cx="272.5" cy="1177.3" r="5.1" fill="#c4622d" stroke="#171D27" stroke-width="2"/><circle cx="264.5" cy="1184.0" r="11.0" fill="#c4622d" stroke="#171D27" stroke-width="2"/><circle cx="272.5" cy="1177.3" r="4.1" fill="#c4622d"/><circle cx="293.0" cy="1177.3" r="5.1" fill="url(#hatch)" stroke="#171D27" stroke-width="2"/><circle cx="301.0" cy="1184.0" r="11.0" fill="url(#hatch)" stroke="#171D27" stroke-width="2"/><circle cx="293.0" cy="1177.3" r="4.1" fill="url(#hatch)"/><circle cx="329.5" cy="1177.3" r="5.1" fill="url(#hatch)" stroke="#171D27" stroke-width="2"/><circle cx="337.5" cy="1184.0" r="11.0" fill="url(#hatch)" stroke="#171D27" stroke-width="2"/><circle cx="329.5" cy="1177.3" r="4.1" fill="url(#hatch)"/><circle cx="366.0" cy="1177.3" r="5.1" fill="url(#hatch)" stroke="#171D27" stroke-width="2"/><circle cx="374.0" cy="1184.0" r="11.0" fill="url(#hatch)" stroke="#171D27" stroke-width="2"/><circle cx="366.0" cy="1177.3" r="4.1" fill="url(#hatch)"/><circle cx="402.5" cy="1177.3" r="5.1" fill="url(#hatch)" stroke="#171D27" stroke-width="2"/><circle cx="410.5" cy="1184.0" r="11.0" fill="url(#hatch)" stroke="#171D27" stroke-width="2"/><circle cx="402.5" cy="1177.3" r="4.1" fill="url(#hatch)"/><circle cx="439.0" cy="1177.3" r="5.1" fill="url(#hatch)" stroke="#171D27" stroke-width="2"/><circle cx="447.0" cy="1184.0" r="11.0" fill="url(#hatch)" stroke="#171D27" stroke-width="2"/><circle cx="439.0" cy="1177.3" r="4.1" fill="url(#hatch)"/><circle cx="475.5" cy="1177.3" r="5.1" fill="url(#hatch)" stroke="#171D27" stroke-width="2"/><circle cx="483.5" cy="1184.0" r="11.0" fill="url(#hatch)" stroke="#171D27" stroke-width="2"/><circle cx="475.5" cy="1177.3" r="4.1" fill="url(#hatch)"/><circle cx="512.0" cy="1177.3" r="5.1" fill="url(#hatch)" stroke="#171D27" stroke-width="2"/><circle cx="520.0" cy="1184.0" r="11.0" fill="url(#hatch)" stroke="#171D27" stroke-width="2"/><circle cx="512.0" cy="1177.3" r="4.1" fill="url(#hatch)"/><circle cx="548.5" cy="1177.3" r="5.1" fill="url(#hatch)" stroke="#171D27" stroke-width="2"/><circle cx="556.5" cy="1184.0" r="11.0" fill="url(#hatch)" stroke="#171D27" stroke-width="2"/><circle cx="548.5" cy="1177.3" r="4.1" fill="url(#hatch)"/><circle cx="601.0" cy="1177.3" r="5.1" fill="#c4622d" stroke="#171D27" stroke-width="2"/><circle cx="593.0" cy="1184.0" r="11.0" fill="#c4622d" stroke="#171D27" stroke-width="2"/><circle cx="601.0" cy="1177.3" r="4.1" fill="#c4622d"/><circle cx="637.5" cy="1177.3" r="5.1" fill="#c4622d" stroke="#171D27" stroke-width="2"/><circle cx="629.5" cy="1184.0" r="11.0" fill="#c4622d" stroke="#171D27" stroke-width="2"/><circle cx="637.5" cy="1177.3" r="4.1" fill="#c4622d"/><circle cx="658.0" cy="1177.3" r="5.1" fill="url(#hatch)" stroke="#171D27" stroke-width="2"/><circle cx="666.0" cy="1184.0" r="11.0" fill="url(#hatch)" stroke="#171D27" stroke-width="2"/><circle cx="658.0" cy="1177.3" r="4.1" fill="url(#hatch)"/><circle cx="710.5" cy="1177.3" r="5.1" fill="#c4622d" stroke="#171D27" stroke-width="2"/><circle cx="702.5" cy="1184.0" r="11.0" fill="#c4622d" stroke="#171D27" stroke-width="2"/><circle cx="710.5" cy="1177.3" r="4.1" fill="#c4622d"/><text x="736" y="1076" font-size="19" font-weight="800" fill="#EEE6D6" text-anchor="end" >19 one hand · 18 the other</text><text x="64" y="1226" font-size="19" font-weight="700" fill="#ABA394" text-anchor="start" >Each run ended between 15% and 91% ee: a lead, never one hand only.</text><text x="44" y="1292" font-size="21" font-weight="400" fill="#EEE6D6" text-anchor="start" >Each molecule makes more of its own hand. Copying alone does</text>
<text x="44" y="1320" font-size="21" font-weight="400" fill="#EEE6D6" text-anchor="start" >not explain why the lead grows; how the reaction amplifies it is</text>
<text x="44" y="1348" font-size="21" font-weight="400" fill="#EEE6D6" text-anchor="start" >still debated.</text><text x="44" y="1386" font-size="19" font-weight="400" fill="#ABA394" text-anchor="start" >ee, the lead of one hand: % of one hand minus % of the other; 0% is an even</text>
<text x="44" y="1412" font-size="19" font-weight="400" fill="#ABA394" text-anchor="start" >mix, 100% is one hand only. Numbers: Soai and co-workers, 2003, as given</text>
<text x="44" y="1438" font-size="19" font-weight="400" fill="#ABA394" text-anchor="start" >in the Nobel Committee’s scientific background. The tokens are symbols,</text>
<text x="44" y="1464" font-size="19" font-weight="400" fill="#ABA394" text-anchor="start" >not real molecules. Our own drawing.</text></g>
</svg>
