<svg xmlns="http://www.w3.org/2000/svg" viewBox="0 0 800 1493" width="800" height="1493" role="img" aria-labelledby="t d">
<title id="t">How a neutrino telescope works, in four steps</title>
<desc id="d">A four-panel drawing of how a neutrino telescope works. Panel 1: a neutrino from space crosses the Earth and the ice at the South Pole without touching anything, which is what almost always happens. Panel 2: very rarely it hits a nucleus in the ice and makes either a muon, which leaves a long track, or a shower, a ball of light. Panel 3: the charged particles move faster than light travels in ice and give off a cone of blue Cherenkov light. Panel 4: light sensors on vertical strings record when and how much light arrives, the first sensors in red and the last in blue, and the pattern gives the direction and the energy. A simplified drawing: shapes, sizes and angles are not to scale.</desc>
<style>@media (prefers-reduced-motion: reduce){*{animation:none!important;transition:none!important}}</style>
<g font-family='system-ui, -apple-system, "Segoe UI", Roboto, "Helvetica Neue", Arial, sans-serif'>
<defs><linearGradient id="iceg" x1="0" y1="0" x2="0" y2="1"><stop offset="0" stop-color="#E9F2FD"/><stop offset="1" stop-color="#D2E2F6"/></linearGradient><radialGradient id="ball" cx="0.5" cy="0.5" r="0.5"><stop offset="0" stop-color="#2A74E8" stop-opacity=".9"/><stop offset=".55" stop-color="#2A74E8" stop-opacity=".35"/><stop offset="1" stop-color="#2A74E8" stop-opacity="0"/></radialGradient><linearGradient id="ckv" x1="1" y1="0" x2="0" y2="0"><stop offset="0" stop-color="#2A74E8" stop-opacity=".55"/><stop offset="1" stop-color="#2A74E8" stop-opacity="0"/></linearGradient></defs><rect width="800" height="1493" rx="28" fill="#F4F7FC"/><rect x="1.5" y="1.5" width="797" height="1490" rx="27" fill="none" stroke="#C6D3EA" stroke-width="3"/><text x="40" y="78" font-size="38" font-weight="800" fill="#14213D" text-anchor="start" >How a neutrino telescope works</text><text x="40" y="118" font-size="26" font-weight="500" fill="#44557A" text-anchor="start" >Through the Earth, a rare hit, a cone of light</text><g transform="translate(24,156)"><rect width="348" height="578" rx="22" fill="#FFFFFF" stroke="#C6D3EA" stroke-width="2"/><circle cx="42" cy="46" r="22" fill="#1A62D3"/><text x="42" y="55" font-size="26" font-weight="800" fill="#F4F7FC" text-anchor="middle" >1</text><text x="78" y="56" font-size="28" font-weight="800" fill="#14213D" text-anchor="start" >Passes through</text><text x="24" y="100" font-size="23" font-weight="400" fill="#44557A" text-anchor="start" >A neutrino from space</text>
<text x="24" y="129" font-size="23" font-weight="400" fill="#44557A" text-anchor="start" >has no electric charge.</text>
<text x="24" y="158" font-size="23" font-weight="400" fill="#44557A" text-anchor="start" >Almost always, it</text>
<text x="24" y="187" font-size="23" font-weight="400" fill="#44557A" text-anchor="start" >crosses the whole Earth</text>
<text x="24" y="216" font-size="23" font-weight="400" fill="#44557A" text-anchor="start" >and the ice without</text>
<text x="24" y="245" font-size="23" font-weight="400" fill="#44557A" text-anchor="start" >touching anything.</text><circle cx="174" cy="396" r="96" fill="#EDE3D2" stroke="#A88D60" stroke-width="2.5"/><path d="M112.8 470 A96 96 0 0 0 235.2 470 Z" fill="#F8FBFF" stroke="#93AFD8" stroke-width="2.5"/><text x="208" y="390" font-size="22" font-weight="700" fill="#44557A" text-anchor="middle" >Earth</text><line x1="36" y1="280" x2="213.8" y2="541.7" stroke="#5A45C4" stroke-width="4.5" stroke-dasharray="10 8" stroke-linecap="round"/><polygon points="219.4,550.0 218.5,528.8 200.1,541.4" fill="#5A45C4"/><text x="60" y="296" font-size="22" font-weight="700" fill="#5A45C4" text-anchor="start" >neutrino</text><text x="24" y="542" font-size="21" font-weight="700" fill="#44557A" text-anchor="start" >South Pole ice</text><line x1="96" y1="520" x2="140.4" y2="480" stroke="#44557A" stroke-width="2"/></g><path d="M388 190 l22 12 l-22 12" fill="none" stroke="#44557A" stroke-width="5" stroke-linecap="round" stroke-linejoin="round"/><g transform="translate(428,156)"><rect width="348" height="578" rx="22" fill="#FFFFFF" stroke="#C6D3EA" stroke-width="2"/><circle cx="42" cy="46" r="22" fill="#1A62D3"/><text x="42" y="55" font-size="26" font-weight="800" fill="#F4F7FC" text-anchor="middle" >2</text><text x="78" y="56" font-size="28" font-weight="800" fill="#14213D" text-anchor="start" >A rare hit</text><text x="24" y="100" font-size="23" font-weight="400" fill="#44557A" text-anchor="start" >Very rarely, one hits a</text>
<text x="24" y="129" font-size="23" font-weight="400" fill="#44557A" text-anchor="start" >nucleus in the ice. That</text>
<text x="24" y="158" font-size="23" font-weight="400" fill="#44557A" text-anchor="start" >makes a muon, which</text>
<text x="24" y="187" font-size="23" font-weight="400" fill="#44557A" text-anchor="start" >leaves a long track, or a</text>
<text x="24" y="216" font-size="23" font-weight="400" fill="#44557A" text-anchor="start" >shower, a ball of light.</text><rect x="16" y="272" width="316" height="288" rx="16" fill="url(#iceg)" stroke="#93AFD8" stroke-width="2"/><text x="318" y="298" font-size="20" font-weight="600" fill="#44557A" text-anchor="end" >ice</text><line x1="40" y1="288" x2="80.4" y2="365.4" stroke="#5A45C4" stroke-width="4.5" stroke-dasharray="10 8" stroke-linecap="round"/><line x1="86" y1="376" x2="135.1" y2="469.9" stroke="#C23A22" stroke-width="6" stroke-linecap="round"/><polygon points="140.7,480.6 142.4,457.1 120.4,468.6" fill="#C23A22"/><polygon points="101.0,376.0 92.2,378.6 96.6,386.6 88.6,382.2 86.0,391.0 83.4,382.2 75.4,386.6 79.8,378.6 71.0,376.0 79.8,373.4 75.4,365.4 83.4,369.8 86.0,361.0 88.6,369.8 96.6,365.4 92.2,373.4" fill="#A85900"/><text x="66" y="383" font-size="21" font-weight="700" fill="#A85900" text-anchor="end" >hit</text><text x="30" y="524" font-size="22" font-weight="700" fill="#C23A22" text-anchor="start" >muon:</text><text x="30" y="548" font-size="21" font-weight="500" fill="#14213D" text-anchor="start" >a long track</text><line x1="196" y1="288" x2="236.4" y2="365.4" stroke="#5A45C4" stroke-width="4.5" stroke-dasharray="10 8" stroke-linecap="round"/><circle cx="248" cy="406" r="58" fill="url(#ball)"/><polygon points="257.0,376.0 248.2,378.6 252.6,386.6 244.6,382.2 242.0,391.0 239.4,382.2 231.4,386.6 235.8,378.6 227.0,376.0 235.8,373.4 231.4,365.4 239.4,369.8 242.0,361.0 244.6,369.8 252.6,365.4 248.2,373.4" fill="#A85900"/><text x="186" y="524" font-size="22" font-weight="700" fill="#1A62D3" text-anchor="start" >shower:</text><text x="186" y="548" font-size="21" font-weight="500" fill="#14213D" text-anchor="start" >a ball of light</text><line x1="174" y1="312" x2="174" y2="498" stroke="#93AFD8" stroke-width="2" stroke-dasharray="4 6"/></g><g transform="translate(24,764)"><rect width="348" height="549" rx="22" fill="#FFFFFF" stroke="#C6D3EA" stroke-width="2"/><circle cx="42" cy="46" r="22" fill="#1A62D3"/><text x="42" y="55" font-size="26" font-weight="800" fill="#F4F7FC" text-anchor="middle" >3</text><text x="78" y="56" font-size="28" font-weight="800" fill="#14213D" text-anchor="start" >A cone of light</text><text x="24" y="100" font-size="23" font-weight="400" fill="#44557A" text-anchor="start" >The charged particles</text>
<text x="24" y="129" font-size="23" font-weight="400" fill="#44557A" text-anchor="start" >move faster than light</text>
<text x="24" y="158" font-size="23" font-weight="400" fill="#44557A" text-anchor="start" >travels in ice. They give</text>
<text x="24" y="187" font-size="23" font-weight="400" fill="#44557A" text-anchor="start" >off a cone of blue light,</text>
<text x="24" y="216" font-size="23" font-weight="400" fill="#44557A" text-anchor="start" >called Cherenkov light.</text><rect x="16" y="243" width="316" height="288" rx="16" fill="url(#iceg)" stroke="#93AFD8" stroke-width="2"/><text x="318" y="269" font-size="20" font-weight="600" fill="#44557A" text-anchor="end" >ice</text><polygon points="236,371 128,259 128,483" fill="url(#ckv)"/><line x1="236" y1="371" x2="128" y2="259" stroke="#1A62D3" stroke-width="3.5" stroke-linecap="round"/><line x1="195.0" y1="328.4" x2="213.7" y2="310.4" stroke="#1A62D3" stroke-width="3.5" stroke-linecap="round"/><polygon points="219.4,304.8 205.6,307.8 216.0,318.5" fill="#1A62D3"/><line x1="151.8" y1="283.6" x2="170.5" y2="265.6" stroke="#1A62D3" stroke-width="3.5" stroke-linecap="round"/><polygon points="176.2,260.0 162.4,263.0 172.8,273.7" fill="#1A62D3"/><line x1="236" y1="371" x2="128" y2="483" stroke="#1A62D3" stroke-width="3.5" stroke-linecap="round"/><line x1="195.0" y1="413.6" x2="213.7" y2="431.6" stroke="#1A62D3" stroke-width="3.5" stroke-linecap="round"/><polygon points="219.4,437.2 216.0,423.5 205.6,434.2" fill="#1A62D3"/><line x1="151.8" y1="458.4" x2="170.5" y2="476.4" stroke="#1A62D3" stroke-width="3.5" stroke-linecap="round"/><polygon points="176.2,482.0 172.8,468.3 162.4,479.0" fill="#1A62D3"/><line x1="30" y1="371" x2="236" y2="371" stroke="#C23A22" stroke-width="6" stroke-linecap="round"/><circle cx="236" cy="371" r="9" fill="#C23A22"/><polygon points="270.0,371.0 254.0,361.1 254.0,380.9" fill="#C23A22"/><text x="30" y="355" font-size="22" font-weight="700" fill="#C23A22" text-anchor="start" >muon</text><text x="318" y="517" font-size="22" font-weight="700" fill="#1A62D3" text-anchor="end" >Cherenkov light</text></g><path d="M388 798 l22 12 l-22 12" fill="none" stroke="#44557A" stroke-width="5" stroke-linecap="round" stroke-linejoin="round"/><g transform="translate(428,764)"><rect width="348" height="549" rx="22" fill="#FFFFFF" stroke="#C6D3EA" stroke-width="2"/><circle cx="42" cy="46" r="22" fill="#1A62D3"/><text x="42" y="55" font-size="26" font-weight="800" fill="#F4F7FC" text-anchor="middle" >4</text><text x="78" y="56" font-size="28" font-weight="800" fill="#14213D" text-anchor="start" >Sensors see it</text><text x="24" y="100" font-size="23" font-weight="400" fill="#44557A" text-anchor="start" >Sensors on strings record</text>
<text x="24" y="129" font-size="23" font-weight="400" fill="#44557A" text-anchor="start" >when and how much light</text>
<text x="24" y="158" font-size="23" font-weight="400" fill="#44557A" text-anchor="start" >arrives. The pattern gives</text>
<text x="24" y="187" font-size="23" font-weight="400" fill="#44557A" text-anchor="start" >the direction and the</text>
<text x="24" y="216" font-size="23" font-weight="400" fill="#44557A" text-anchor="start" >energy.</text><line x1="46" y1="247" x2="46" y2="453" stroke="#C1CEE6" stroke-width="3"/><line x1="110" y1="247" x2="110" y2="453" stroke="#C1CEE6" stroke-width="3"/><line x1="174" y1="247" x2="174" y2="453" stroke="#C1CEE6" stroke-width="3"/><line x1="238" y1="247" x2="238" y2="453" stroke="#C1CEE6" stroke-width="3"/><line x1="302" y1="247" x2="302" y2="453" stroke="#C1CEE6" stroke-width="3"/><line x1="20" y1="265" x2="323.4" y2="423.4" stroke="#C23A22" stroke-width="3" stroke-dasharray="8 7" stroke-opacity=".9"/><polygon points="334.0,429.0 324.4,412.8 315.2,430.4" fill="#C23A22"/><circle cx="46" cy="351" r="5" fill="#FFFFFF" stroke="#8597BC" stroke-width="2.5"/><circle cx="46" cy="381" r="5" fill="#FFFFFF" stroke="#8597BC" stroke-width="2.5"/><circle cx="46" cy="411" r="5" fill="#FFFFFF" stroke="#8597BC" stroke-width="2.5"/><circle cx="46" cy="441" r="5" fill="#FFFFFF" stroke="#8597BC" stroke-width="2.5"/><circle cx="110" cy="261" r="5" fill="#FFFFFF" stroke="#8597BC" stroke-width="2.5"/><circle cx="110" cy="381" r="5" fill="#FFFFFF" stroke="#8597BC" stroke-width="2.5"/><circle cx="110" cy="411" r="5" fill="#FFFFFF" stroke="#8597BC" stroke-width="2.5"/><circle cx="110" cy="441" r="5" fill="#FFFFFF" stroke="#8597BC" stroke-width="2.5"/><circle cx="174" cy="261" r="5" fill="#FFFFFF" stroke="#8597BC" stroke-width="2.5"/><circle cx="174" cy="291" r="5" fill="#FFFFFF" stroke="#8597BC" stroke-width="2.5"/><circle cx="174" cy="411" r="5" fill="#FFFFFF" stroke="#8597BC" stroke-width="2.5"/><circle cx="174" cy="441" r="5" fill="#FFFFFF" stroke="#8597BC" stroke-width="2.5"/><circle cx="238" cy="261" r="5" fill="#FFFFFF" stroke="#8597BC" stroke-width="2.5"/><circle cx="238" cy="291" r="5" fill="#FFFFFF" stroke="#8597BC" stroke-width="2.5"/><circle cx="238" cy="321" r="5" fill="#FFFFFF" stroke="#8597BC" stroke-width="2.5"/><circle cx="238" cy="441" r="5" fill="#FFFFFF" stroke="#8597BC" stroke-width="2.5"/><circle cx="302" cy="261" r="5" fill="#FFFFFF" stroke="#8597BC" stroke-width="2.5"/><circle cx="302" cy="291" r="5" fill="#FFFFFF" stroke="#8597BC" stroke-width="2.5"/><circle cx="302" cy="321" r="5" fill="#FFFFFF" stroke="#8597BC" stroke-width="2.5"/><circle cx="302" cy="351" r="5" fill="#FFFFFF" stroke="#8597BC" stroke-width="2.5"/><circle cx="46" cy="261" r="10.8" fill="#C23A22" stroke="#FFFFFF" stroke-width="2"/><circle cx="46" cy="291" r="11.7" fill="#C23A22" stroke="#FFFFFF" stroke-width="2"/><circle cx="46" cy="321" r="6.3" fill="#C23A22" stroke="#FFFFFF" stroke-width="2"/><circle cx="110" cy="291" r="10.2" fill="#A85900" stroke="#FFFFFF" stroke-width="2"/><circle cx="110" cy="321" r="12.4" fill="#A85900" stroke="#FFFFFF" stroke-width="2"/><circle cx="110" cy="351" r="6.9" fill="#A85900" stroke="#FFFFFF" stroke-width="2"/><circle cx="174" cy="321" r="9.6" fill="#A85900" stroke="#FFFFFF" stroke-width="2"/><circle cx="174" cy="351" r="13.0" fill="#A85900" stroke="#FFFFFF" stroke-width="2"/><circle cx="174" cy="381" r="7.6" fill="#07785F" stroke="#FFFFFF" stroke-width="2"/><circle cx="238" cy="351" r="8.9" fill="#07785F" stroke="#FFFFFF" stroke-width="2"/><circle cx="238" cy="381" r="13.6" fill="#07785F" stroke="#FFFFFF" stroke-width="2"/><circle cx="238" cy="411" r="8.2" fill="#07785F" stroke="#FFFFFF" stroke-width="2"/><circle cx="302" cy="381" r="8.3" fill="#1A62D3" stroke="#FFFFFF" stroke-width="2"/><circle cx="302" cy="411" r="13.8" fill="#1A62D3" stroke="#FFFFFF" stroke-width="2"/><circle cx="302" cy="441" r="8.8" fill="#1A62D3" stroke="#FFFFFF" stroke-width="2"/><text x="330" y="475" font-size="21" font-weight="700" fill="#C23A22" text-anchor="end" >direction</text><text x="24" y="499" font-size="21" font-weight="600" fill="#44557A" text-anchor="start" >first</text><circle cx="86" cy="492" r="8" fill="#C23A22"/><circle cx="108" cy="492" r="8" fill="#A85900"/><circle cx="130" cy="492" r="8" fill="#07785F"/><circle cx="152" cy="492" r="8" fill="#1A62D3"/><text x="168" y="499" font-size="21" font-weight="600" fill="#44557A" text-anchor="start" >last</text><text x="24" y="527" font-size="21" font-weight="600" fill="#44557A" text-anchor="start" >bigger dot: more light</text></g><text x="40" y="1375" font-size="22" font-weight="400" fill="#14213D" text-anchor="start" >IceCube watches a cubic kilometre of Antarctic ice this way,</text>
<text x="40" y="1404" font-size="22" font-weight="400" fill="#14213D" text-anchor="start" >with 5,160 sensors on 86 strings.</text><text x="40" y="1447" font-size="20" font-weight="400" fill="#44557A" text-anchor="start" >Simplified drawing: shapes, sizes and angles are not to scale. Detector</text>
<text x="40" y="1474" font-size="20" font-weight="400" fill="#44557A" text-anchor="start" >numbers: IceCube Collaboration, icecube.wisc.edu.</text></g>
</svg>
